<svg xmlns="http://www.w3.org/2000/svg" id="combinedChart" height="660" width="1670"><g transform="translate(70,60)"><g><line x1="0" y1="0" x2="0" y2="480" stroke="#eee"/><line x1="125" y1="0" x2="125" y2="480" stroke="#eee"/><line x1="250" y1="0" x2="250" y2="480" stroke="#eee"/><line x1="375" y1="0" x2="375" y2="480" stroke="#eee"/><line x1="500" y1="0" x2="500" y2="480" stroke="#eee"/><line x1="625" y1="0" x2="625" y2="480" stroke="#eee"/><line x1="750" y1="0" x2="750" y2="480" stroke="#eee"/><line x1="875" y1="0" x2="875" y2="480" stroke="#eee"/><line x1="1000" y1="0" x2="1000" y2="480" stroke="#eee"/><line x1="1125" y1="0" x2="1125" y2="480" stroke="#eee"/><line x1="1250" y1="0" x2="1250" y2="480" stroke="#eee"/><line x1="1375" y1="0" x2="1375" y2="480" stroke="#eee"/><line x1="1500" y1="0" x2="1500" y2="480" stroke="#eee"/><line x1="0" y1="458.1818181818182" x2="1500" y2="458.1818181818182" stroke="#eee"/><line x1="0" y1="414.54545454545456" x2="1500" y2="414.54545454545456" stroke="#eee"/><line x1="0" y1="370.9090909090909" x2="1500" y2="370.9090909090909" stroke="#eee"/><line x1="0" y1="327.27272727272725" x2="1500" y2="327.27272727272725" stroke="#eee"/><line x1="0" y1="283.6363636363636" x2="1500" y2="283.6363636363636" stroke="#eee"/><line x1="0" y1="240" x2="1500" y2="240" stroke="#eee"/><line x1="0" y1="196.36363636363637" x2="1500" y2="196.36363636363637" stroke="#eee"/><line x1="0" y1="152.72727272727275" x2="1500" y2="152.72727272727275" stroke="#eee"/><line x1="0" y1="109.09090909090912" x2="1500" y2="109.09090909090912" stroke="#eee"/><line x1="0" y1="65.45454545454544" x2="1500" y2="65.45454545454544" stroke="#eee"/><line x1="0" y1="21.818181818181813" x2="1500" y2="21.818181818181813" stroke="#eee"/></g><g><line x1="1100" y1="196.36363636363637" x2="1175" y2="109.09090909090912" stroke="#804000" stroke-width="2" stroke-dasharray="6 4" opacity="0.7" pointer-events="none"/><line x1="1075" y1="283.6363636363636" x2="1100" y2="196.36363636363637" stroke="#804000" stroke-width="2" stroke-dasharray="6 4" opacity="0.7" pointer-events="none"/><line x1="875" y1="152.72727272727275" x2="1075" y2="283.6363636363636" stroke="#804000" stroke-width="2" stroke-dasharray="6 4" opacity="0.7" pointer-events="none"/><line x1="700" y1="152.72727272727275" x2="875" y2="152.72727272727275" stroke="#804000" stroke-width="2" stroke-dasharray="6 4" opacity="0.7" pointer-events="none"/><line x1="625" y1="152.72727272727275" x2="700" y2="152.72727272727275" stroke="#804000" stroke-width="2" stroke-dasharray="6 4" opacity="0.7" pointer-events="none"/><line x1="500" y1="240" x2="625" y2="152.72727272727275" stroke="#804000" stroke-width="2" stroke-dasharray="6 4" opacity="0.7" pointer-events="none"/><line x1="450" y1="196.36363636363637" x2="500" y2="240" stroke="#804000" stroke-width="2" stroke-dasharray="6 4" opacity="0.7" pointer-events="none"/><line x1="375" y1="240" x2="450" y2="196.36363636363637" stroke="#804000" stroke-width="2" stroke-dasharray="6 4" opacity="0.7" pointer-events="none"/><line x1="250" y1="196.36363636363637" x2="375" y2="240" stroke="#804000" stroke-width="2" stroke-dasharray="6 4" opacity="0.7" pointer-events="none"/><line x1="150" y1="152.72727272727275" x2="250" y2="196.36363636363637" stroke="#804000" stroke-width="2" stroke-dasharray="6 4" opacity="0.7" pointer-events="none"/><line x1="1250" y1="240" x2="1300" y2="109.09090909090912" stroke="#00ff40" stroke-width="2" stroke-dasharray="6 4" opacity="0.7" pointer-events="none"/><line x1="1100" y1="283.6363636363636" x2="1250" y2="240" stroke="#00ff40" stroke-width="2" stroke-dasharray="6 4" opacity="0.7" pointer-events="none"/><line x1="975" y1="327.27272727272725" x2="1100" y2="283.6363636363636" stroke="#00ff40" stroke-width="2" stroke-dasharray="6 4" opacity="0.7" pointer-events="none"/><line x1="900" y1="240" x2="975" y2="327.27272727272725" stroke="#00ff40" stroke-width="2" stroke-dasharray="6 4" opacity="0.7" pointer-events="none"/><line x1="850" y1="196.36363636363637" x2="900" y2="240" stroke="#00ff40" stroke-width="2" stroke-dasharray="6 4" opacity="0.7" pointer-events="none"/><line x1="750" y1="152.72727272727275" x2="850" y2="196.36363636363637" stroke="#00ff40" stroke-width="2" stroke-dasharray="6 4" opacity="0.7" pointer-events="none"/><line x1="725" y1="152.72727272727275" x2="750" y2="152.72727272727275" stroke="#00ff40" stroke-width="2" stroke-dasharray="6 4" opacity="0.7" pointer-events="none"/><line x1="675" y1="152.72727272727275" x2="725" y2="152.72727272727275" stroke="#00ff40" stroke-width="2" stroke-dasharray="6 4" opacity="0.7" pointer-events="none"/><line x1="600" y1="196.36363636363637" x2="675" y2="152.72727272727275" stroke="#00ff40" stroke-width="2" stroke-dasharray="6 4" opacity="0.7" pointer-events="none"/><line x1="425" y1="240" x2="600" y2="196.36363636363637" stroke="#00ff40" stroke-width="2" stroke-dasharray="6 4" opacity="0.7" pointer-events="none"/><line x1="400" y1="240" x2="425" y2="240" stroke="#00ff40" stroke-width="2" stroke-dasharray="6 4" opacity="0.7" pointer-events="none"/><line x1="200" y1="196.36363636363637" x2="400" y2="240" stroke="#00ff40" stroke-width="2" stroke-dasharray="6 4" opacity="0.7" pointer-events="none"/><line x1="175" y1="240" x2="200" y2="196.36363636363637" stroke="#00ff40" stroke-width="2" stroke-dasharray="6 4" opacity="0.7" pointer-events="none"/><line x1="1150" y1="152.72727272727275" x2="1250" y2="152.72727272727275" stroke="#ff8080" stroke-width="2" stroke-dasharray="6 4" opacity="0.7" pointer-events="none"/><line x1="1100" y1="370.9090909090909" x2="1150" y2="152.72727272727275" stroke="#ff8080" stroke-width="2" stroke-dasharray="6 4" opacity="0.7" pointer-events="none"/><line x1="1000" y1="283.6363636363636" x2="1100" y2="370.9090909090909" stroke="#ff8080" stroke-width="2" stroke-dasharray="6 4" opacity="0.7" pointer-events="none"/><line x1="875" y1="196.36363636363637" x2="1000" y2="283.6363636363636" stroke="#ff8080" stroke-width="2" stroke-dasharray="6 4" opacity="0.7" pointer-events="none"/><line x1="750" y1="109.09090909090912" x2="875" y2="196.36363636363637" stroke="#ff8080" stroke-width="2" stroke-dasharray="6 4" opacity="0.7" pointer-events="none"/><line x1="625" y1="152.72727272727275" x2="750" y2="109.09090909090912" stroke="#ff8080" stroke-width="2" stroke-dasharray="6 4" opacity="0.7" pointer-events="none"/><line x1="625" y1="152.72727272727275" x2="625" y2="152.72727272727275" stroke="#ff8080" stroke-width="2" stroke-dasharray="6 4" opacity="0.7" pointer-events="none"/><line x1="450" y1="240" x2="625" y2="152.72727272727275" stroke="#ff8080" stroke-width="2" stroke-dasharray="6 4" opacity="0.7" pointer-events="none"/><line x1="225" y1="196.36363636363637" x2="450" y2="240" stroke="#ff8080" stroke-width="2" stroke-dasharray="6 4" opacity="0.7" pointer-events="none"/><line x1="125" y1="196.36363636363637" x2="225" y2="196.36363636363637" stroke="#ff8080" stroke-width="2" stroke-dasharray="6 4" opacity="0.7" pointer-events="none"/><circle cx="625" cy="152.72727272727275" r="16" fill="#dc3545" opacity="0.9" style="cursor: pointer;"/><text x="625" y="157.72727272727275" text-anchor="middle" fill="white" font-weight="bold" font-size="14" style="pointer-events: none;">3</text><circle cx="875" cy="196.36363636363637" r="12" fill="#ff8080" stroke="#000" stroke-width="2" style="cursor: pointer;"/><circle cx="125" cy="196.36363636363637" r="12" fill="#ff8080" stroke="#000" stroke-width="2" style="cursor: pointer;"/><circle cx="225" cy="196.36363636363637" r="12" fill="#ff8080" stroke="#000" stroke-width="2" style="cursor: pointer;"/><circle cx="450" cy="240" r="12" fill="#ff8080" stroke="#000" stroke-width="2" style="cursor: pointer;"/><circle cx="750" cy="109.09090909090912" r="12" fill="#ff8080" stroke="#000" stroke-width="2" style="cursor: pointer;"/><circle cx="1150" cy="152.72727272727275" r="12" fill="#ff8080" stroke="#000" stroke-width="2" style="cursor: pointer;"/><circle cx="1250" cy="152.72727272727275" r="12" fill="#ff8080" stroke="#000" stroke-width="2" style="cursor: pointer;"/><circle cx="1000" cy="283.6363636363636" r="12" fill="#ff8080" stroke="#000" stroke-width="2" style="cursor: pointer;"/><circle cx="1100" cy="370.9090909090909" r="12" fill="#ff8080" stroke="#000" stroke-width="2" style="cursor: pointer;"/><circle cx="400" cy="240" r="12" fill="#00ff40" stroke="#000" stroke-width="2" style="cursor: pointer;"/><circle cx="725" cy="152.72727272727275" r="12" fill="#00ff40" stroke="#000" stroke-width="2" style="cursor: pointer;"/><circle cx="1250" cy="240" r="12" fill="#00ff40" stroke="#000" stroke-width="2" style="cursor: pointer;"/><circle cx="750" cy="152.72727272727275" r="12" fill="#00ff40" stroke="#000" stroke-width="2" style="cursor: pointer;"/><circle cx="175" cy="240" r="12" fill="#00ff40" stroke="#000" stroke-width="2" style="cursor: pointer;"/><circle cx="200" cy="196.36363636363637" r="12" fill="#00ff40" stroke="#000" stroke-width="2" style="cursor: pointer;"/><circle cx="425" cy="240" r="12" fill="#00ff40" stroke="#000" stroke-width="2" style="cursor: pointer;"/><circle cx="600" cy="196.36363636363637" r="12" fill="#00ff40" stroke="#000" stroke-width="2" style="cursor: pointer;"/><circle cx="675" cy="152.72727272727275" r="12" fill="#00ff40" stroke="#000" stroke-width="2" style="cursor: pointer;"/><circle cx="850" cy="196.36363636363637" r="12" fill="#00ff40" stroke="#000" stroke-width="2" style="cursor: pointer;"/><circle cx="900" cy="240" r="12" fill="#00ff40" stroke="#000" stroke-width="2" style="cursor: pointer;"/><circle cx="975" cy="327.27272727272725" r="12" fill="#00ff40" stroke="#000" stroke-width="2" style="cursor: pointer;"/><circle cx="1100" cy="283.6363636363636" r="12" fill="#00ff40" stroke="#000" stroke-width="2" style="cursor: pointer;"/><circle cx="1300" cy="109.09090909090912" r="12" fill="#00ff40" stroke="#000" stroke-width="2" style="cursor: pointer;"/><circle cx="500" cy="240" r="12" fill="#804000" stroke="#000" stroke-width="2" style="cursor: pointer;"/><circle cx="875" cy="152.72727272727275" r="12" fill="#804000" stroke="#000" stroke-width="2" style="cursor: pointer;"/><circle cx="1100" cy="196.36363636363637" r="12" fill="#804000" stroke="#000" stroke-width="2" style="cursor: pointer;"/><circle cx="150" cy="152.72727272727275" r="12" fill="#804000" stroke="#000" stroke-width="2" style="cursor: pointer;"/><circle cx="375" cy="240" r="12" fill="#804000" stroke="#000" stroke-width="2" style="cursor: pointer;"/><circle cx="450" cy="196.36363636363637" r="12" fill="#804000" stroke="#000" stroke-width="2" style="cursor: pointer;"/><circle cx="700" cy="152.72727272727275" r="12" fill="#804000" stroke="#000" stroke-width="2" style="cursor: pointer;"/><circle cx="1175" cy="109.09090909090912" r="12" fill="#804000" stroke="#000" stroke-width="2" style="cursor: pointer;"/><circle cx="1075" cy="283.6363636363636" r="12" fill="#804000" stroke="#000" stroke-width="2" style="cursor: pointer;"/><circle cx="250" cy="196.36363636363637" r="12" fill="#804000" stroke="#000" stroke-width="2" style="cursor: pointer;"/></g><g transform="translate(0,480)"><text x="125" y="20" text-anchor="middle" font-size="12">11:00</text><text x="375" y="20" text-anchor="middle" font-size="12">11:10</text><text x="625" y="20" text-anchor="middle" font-size="12">11:20</text><text x="875" y="20" text-anchor="middle" font-size="12">11:30</text><text x="1125" y="20" text-anchor="middle" font-size="12">11:40</text><text x="1375" y="20" text-anchor="middle" font-size="12">11:50</text></g><g><text x="-10" y="463.1818181818182" text-anchor="end" font-size="12">0</text><text x="-10" y="419.54545454545456" text-anchor="end" font-size="12">10</text><text x="-10" y="375.9090909090909" text-anchor="end" font-size="12">20</text><text x="-10" y="332.27272727272725" text-anchor="end" font-size="12">30</text><text x="-10" y="288.6363636363636" text-anchor="end" font-size="12">40</text><text x="-10" y="245" text-anchor="end" font-size="12">50</text><text x="-10" y="201.36363636363637" text-anchor="end" font-size="12">60</text><text x="-10" y="157.72727272727275" text-anchor="end" font-size="12">70</text><text x="-10" y="114.09090909090912" text-anchor="end" font-size="12">80</text><text x="-10" y="70.45454545454544" text-anchor="end" font-size="12">90</text><text x="-10" y="26.818181818181813" text-anchor="end" font-size="12">100</text></g><g transform="translate(0, 540)"><rect x="0" y="0" width="20" height="20" fill="#ff8080" stroke="#000"/><text x="30" y="15" font-size="14">Schüler 1 (11)</text><rect x="160" y="0" width="20" height="20" fill="#00ff40" stroke="#000"/><text x="190" y="15" font-size="14">Schüler 2 (14)</text><rect x="320" y="0" width="20" height="20" fill="#804000" stroke="#000"/><text x="350" y="15" font-size="14">Schüler 3 (11)</text></g></g><text transform="rotate(-90)" x="-300" y="-45" text-anchor="middle" font-size="16" data-ylabel="true">Engagement (%)</text>
            <style type="text/css">
                text { 
                    font-family: system-ui, -apple-system, "Segoe UI", Roboto, "Helvetica Neue", Arial, "Noto Sans", sans-serif;
                    font-size: 12px;
                }
                line[stroke="#eee"] { stroke: #dddddd; }
            </style></svg>